<svg xmlns="http://www.w3.org/2000/svg" width="75" height="44" viewBox="0 0 75 44">
  <g id="Blue_whale" data-name="Blue whale" transform="translate(-4094 -10932)">
    <rect id="Rectangle_2768" data-name="Rectangle 2768" width="75" height="44" rx="2" transform="translate(4094 10932)" fill="#004b5e"/>
    <rect id="Rectangle_2769" data-name="Rectangle 2769" width="11" height="3" rx="0.5" transform="translate(4142 10959)" fill="#00dbae"/>
    <rect id="Rectangle_2770" data-name="Rectangle 2770" width="11" height="3" rx="0.5" transform="translate(4155 10959)" fill="#ff4033"/>
    <path id="Rectangle_2771" data-name="Rectangle 2771" d="M2,0H73a2,2,0,0,1,2,2V4a0,0,0,0,1,0,0H0A0,0,0,0,1,0,4V2A2,2,0,0,1,2,0Z" transform="translate(4094 10932)" fill="#1389a7"/>
    <rect id="Rectangle_2772" data-name="Rectangle 2772" width="24" height="2" rx="0.5" transform="translate(4142 10939)" fill="#1389a7"/>
    <rect id="Rectangle_2773" data-name="Rectangle 2773" width="24" height="2" rx="0.5" transform="translate(4142 10943)" fill="#1389a7"/>
    <rect id="Rectangle_2774" data-name="Rectangle 2774" width="24" height="2" rx="0.5" transform="translate(4142 10947)" fill="#1389a7"/>
    <rect id="Rectangle_2775" data-name="Rectangle 2775" width="24" height="2" rx="0.5" transform="translate(4142 10951)" fill="#1389a7"/>
    <rect id="Rectangle_2776" data-name="Rectangle 2776" width="24" height="2" rx="0.5" transform="translate(4142 10955)" fill="#1389a7"/>
    <rect id="Rectangle_2777" data-name="Rectangle 2777" width="43" height="8" rx="1" transform="translate(4097 10964)" fill="#1389a7"/>
    <rect id="Rectangle_2778" data-name="Rectangle 2778" width="24" height="8" rx="1" transform="translate(4142 10964)" fill="#1389a7"/>
    <rect id="Rectangle_2779" data-name="Rectangle 2779" width="43" height="23" rx="1" transform="translate(4097 10939)" fill="#1389a7"/>
  </g>
</svg>
