<svg xmlns="http://www.w3.org/2000/svg" width="75" height="44" viewBox="0 0 75 44">
  <g id="Dark_new" data-name="Dark new" transform="translate(-4094 -10874)">
    <rect id="Rectangle_2756" data-name="Rectangle 2756" width="75" height="44" rx="2" transform="translate(4094 10874)" fill="#11141d"/>
    <rect id="Rectangle_2757" data-name="Rectangle 2757" width="11" height="3" rx="0.5" transform="translate(4142 10901)" fill="#00db6e"/>
    <rect id="Rectangle_2758" data-name="Rectangle 2758" width="11" height="3" rx="0.5" transform="translate(4155 10901)" fill="#ff4033"/>
    <path id="Rectangle_2759" data-name="Rectangle 2759" d="M2,0H73a2,2,0,0,1,2,2V4a0,0,0,0,1,0,0H0A0,0,0,0,1,0,4V2A2,2,0,0,1,2,0Z" transform="translate(4094 10874)" fill="#363841"/>
    <rect id="Rectangle_2760" data-name="Rectangle 2760" width="24" height="2" rx="0.5" transform="translate(4142 10881)" fill="#363841"/>
    <rect id="Rectangle_2761" data-name="Rectangle 2761" width="24" height="2" rx="0.5" transform="translate(4142 10885)" fill="#363841"/>
    <rect id="Rectangle_2762" data-name="Rectangle 2762" width="24" height="2" rx="0.5" transform="translate(4142 10889)" fill="#363841"/>
    <rect id="Rectangle_2763" data-name="Rectangle 2763" width="24" height="2" rx="0.5" transform="translate(4142 10893)" fill="#363841"/>
    <rect id="Rectangle_2764" data-name="Rectangle 2764" width="24" height="2" rx="0.5" transform="translate(4142 10897)" fill="#363841"/>
    <rect id="Rectangle_2765" data-name="Rectangle 2765" width="43" height="8" rx="1" transform="translate(4097 10906)" fill="#363841"/>
    <rect id="Rectangle_2766" data-name="Rectangle 2766" width="24" height="8" rx="1" transform="translate(4142 10906)" fill="#363841"/>
    <rect id="Rectangle_2767" data-name="Rectangle 2767" width="43" height="23" rx="1" transform="translate(4097 10881)" fill="#363841"/>
  </g>
</svg>
