<svg xmlns="http://www.w3.org/2000/svg" width="75" height="44" viewBox="0 0 75 44">
  <g id="light_new" data-name="light new" transform="translate(-4094 -10816)">
    <rect id="Rectangle_2744" data-name="Rectangle 2744" width="75" height="44" rx="2" transform="translate(4094 10816)" fill="#e6e7ee"/>
    <rect id="Rectangle_2745" data-name="Rectangle 2745" width="11" height="3" rx="0.5" transform="translate(4142 10843)" fill="#00db6e"/>
    <rect id="Rectangle_2746" data-name="Rectangle 2746" width="11" height="3" rx="0.5" transform="translate(4155 10843)" fill="#ff4033"/>
    <path id="Rectangle_2747" data-name="Rectangle 2747" d="M2,0H73a2,2,0,0,1,2,2V4a0,0,0,0,1,0,0H0A0,0,0,0,1,0,4V2A2,2,0,0,1,2,0Z" transform="translate(4094 10816)" fill="#ccced9"/>
    <rect id="Rectangle_2748" data-name="Rectangle 2748" width="24" height="2" rx="0.5" transform="translate(4142 10823)" fill="#ccced9"/>
    <rect id="Rectangle_2749" data-name="Rectangle 2749" width="24" height="2" rx="0.5" transform="translate(4142 10827)" fill="#ccced9"/>
    <rect id="Rectangle_2750" data-name="Rectangle 2750" width="24" height="2" rx="0.5" transform="translate(4142 10831)" fill="#ccced9"/>
    <rect id="Rectangle_2751" data-name="Rectangle 2751" width="24" height="2" rx="0.5" transform="translate(4142 10835)" fill="#ccced9"/>
    <rect id="Rectangle_2752" data-name="Rectangle 2752" width="24" height="2" rx="0.5" transform="translate(4142 10839)" fill="#ccced9"/>
    <rect id="Rectangle_2753" data-name="Rectangle 2753" width="43" height="8" rx="1" transform="translate(4097 10848)" fill="#ccced9"/>
    <rect id="Rectangle_2754" data-name="Rectangle 2754" width="24" height="8" rx="1" transform="translate(4142 10848)" fill="#ccced9"/>
    <rect id="Rectangle_2755" data-name="Rectangle 2755" width="43" height="23" rx="1" transform="translate(4097 10823)" fill="#ccced9"/>
  </g>
</svg>
