<svg xmlns="http://www.w3.org/2000/svg" width="75" height="44" viewBox="0 0 75 44">
  <g id="Maastricht_Blue" data-name="Maastricht Blue" transform="translate(-14664 -1765)">
    <rect id="Rectangle_2593" data-name="Rectangle 2593" width="75" height="44" rx="2" transform="translate(14664 1765)" fill="#091d41"/>
    <rect id="Rectangle_2645" data-name="Rectangle 2645" width="11" height="3" rx="0.5" transform="translate(14712 1792)" fill="#00dbae"/>
    <rect id="Rectangle_2646" data-name="Rectangle 2646" width="11" height="3" rx="0.5" transform="translate(14725 1792)" fill="#ff4033"/>
    <g id="Group_2938" data-name="Group 2938" transform="translate(13675 1101)">
      <path id="Rectangle_2597" data-name="Rectangle 2597" d="M2,0H73a2,2,0,0,1,2,2V4a0,0,0,0,1,0,0H0A0,0,0,0,1,0,4V2A2,2,0,0,1,2,0Z" transform="translate(989 664)" fill="#203e71"/>
      <rect id="Rectangle_2643" data-name="Rectangle 2643" width="24" height="2" rx="0.5" transform="translate(1037 671)" fill="#203e71"/>
      <rect id="Rectangle_2643-2" data-name="Rectangle 2643" width="24" height="2" rx="0.5" transform="translate(1037 675)" fill="#203e71"/>
      <rect id="Rectangle_2643-3" data-name="Rectangle 2643" width="24" height="2" rx="0.5" transform="translate(1037 679)" fill="#203e71"/>
      <rect id="Rectangle_2643-4" data-name="Rectangle 2643" width="24" height="2" rx="0.5" transform="translate(1037 683)" fill="#203e71"/>
      <rect id="Rectangle_2643-5" data-name="Rectangle 2643" width="24" height="2" rx="0.5" transform="translate(1037 687)" fill="#203e71"/>
      <rect id="Rectangle_2601" data-name="Rectangle 2601" width="43" height="8" rx="1" transform="translate(992 696)" fill="#203e71"/>
      <rect id="Rectangle_2644" data-name="Rectangle 2644" width="24" height="8" rx="1" transform="translate(1037 696)" fill="#203e71"/>
      <rect id="Rectangle_2602" data-name="Rectangle 2602" width="43" height="23" rx="1" transform="translate(992 671)" fill="#203e71"/>
    </g>
  </g>
</svg>
